<svg xmlns="http://www.w3.org/2000/svg" viewBox="0 0 128 128" role="img" aria-label="Shield logo">
  <defs>
    <linearGradient id="shieldGrad" x1="0" x2="1" y1="0" y2="1">
      <stop offset="0%" stop-color="#1b5e20" />
      <stop offset="55%" stop-color="#4b5320" />
      <stop offset="100%" stop-color="#ffd700" />
    </linearGradient>
  </defs>
  <path fill="url(#shieldGrad)" d="M64 8c18 12 36 14 50 16v36c0 33-21 52-50 60C35 112 14 93 14 60V24c14-2 32-4 50-16z"/>
  <path fill="#0f172a" opacity="0.28" d="M64 22c13 8 26 10 37 12v24c0 25-15 40-37 47-22-7-37-22-37-47V34c11-2 24-4 37-12z"/>
  <path fill="#f8fafc" opacity="0.9" d="M63 33l7 14 15 2-11 11 2 15-13-7-13 7 2-15-11-11 15-2z"/>
</svg>
